<?xml version="1.0" standalone="no"?>
<!DOCTYPE svg PUBLIC "-//W3C//DTD SVG 20010904//EN"
 "http://www.w3.org/TR/2001/REC-SVG-20010904/DTD/svg10.dtd">
<svg version="1.0" xmlns="http://www.w3.org/2000/svg"
 width="1127.000000pt" height="1127.000000pt" viewBox="0 0 1127.000000 1127.000000"
 preserveAspectRatio="xMidYMid meet">
<metadata>
Created by potrace 1.14, written by Peter Selinger 2001-2017
</metadata>
<g transform="translate(0.000000,1127.000000) scale(0.100000,-0.100000)"
fill="#000000" stroke="none">
<path d="M2145 10740 c-228 -35 -422 -97 -627 -202 -620 -315 -1042 -915
-1127 -1608 -16 -121 -13 -407 4 -528 98 -693 521 -1277 1145 -1586 500 -247
1081 -281 1616 -95 122 42 331 146 439 218 l90 60 660 -658 c737 -736 690
-696 835 -696 128 0 233 68 289 185 20 44 26 70 26 130 0 145 40 98 -696 835
l-658 660 60 90 c200 300 319 674 336 1055 24 579 -194 1137 -607 1551 -324
326 -731 529 -1191 594 -148 21 -441 18 -594 -5z m595 -649 c634 -128 1103
-660 1149 -1301 30 -435 -125 -841 -437 -1142 -189 -183 -399 -297 -665 -364
-142 -36 -406 -45 -558 -19 -536 89 -973 465 -1137 975 -54 168 -67 256 -66
450 1 196 19 307 75 467 124 351 382 643 716 811 136 69 324 124 493 146 77
10 337 -4 430 -23z"/>
<path d="M6989 10050 c-318 -50 -616 -209 -834 -442 -179 -192 -299 -426 -357
-691 -30 -138 -33 -473 -5 -612 51 -250 148 -463 305 -664 60 -77 218 -226
1933 -1827 150 -139 314 -168 484 -84 49 24 224 182 990 898 512 477 963 904
1003 947 169 181 295 428 354 690 29 131 37 455 13 597 -72 441 -348 824 -745
1037 -118 62 -302 124 -438 147 -128 21 -405 15 -521 -11 -278 -62 -510 -189
-728 -399 l-113 -109 -118 114 c-214 209 -434 329 -722 395 -77 18 -417 27
-501 14z"/>
<path d="M2526 5620 c-109 -28 -110 -29 -1122 -1043 -1108 -1110 -1019 -1005
-1019 -1192 0 -187 -85 -87 1029 -1201 1114 -1114 1014 -1029 1201 -1029 190
0 91 -85 1216 1042 932 933 978 981 1000 1038 19 48 23 79 23 155 0 83 -3 103
-28 160 -28 61 -82 118 -970 1009 -518 518 -962 960 -988 981 -27 21 -74 48
-105 60 -66 25 -179 34 -237 20z m219 -755 c130 -81 145 -272 29 -374 -111
-98 -281 -72 -359 53 -26 43 -30 59 -30 120 1 82 24 136 77 181 53 45 86 56
164 53 59 -3 79 -8 119 -33z m-1285 -1277 c133 -81 152 -274 38 -374 -81 -71
-193 -82 -284 -29 -133 78 -150 280 -32 380 49 42 86 54 158 55 57 0 73 -4
120 -32z m1280 0 c133 -81 152 -274 38 -374 -114 -100 -284 -77 -363 50 -26
43 -30 59 -30 120 1 82 24 136 77 181 49 42 86 54 158 55 57 0 73 -4 120 -32z
m1280 0 c133 -81 152 -274 38 -374 -114 -100 -284 -77 -363 50 -26 43 -30 59
-30 120 1 82 24 136 77 181 49 42 86 54 158 55 57 0 73 -4 120 -32z m-1280
-1280 c169 -103 144 -351 -44 -423 -53 -21 -135 -16 -184 9 -147 76 -174 287
-50 391 49 42 86 54 158 55 57 0 73 -4 120 -32z"/>
<path d="M7121 5292 c-39 -21 -71 -73 -71 -114 0 -16 36 -101 81 -189 l80
-161 -56 -59 c-31 -32 -66 -80 -78 -106 l-22 -48 0 -745 0 -745 24 -53 c14
-32 44 -71 77 -101 48 -44 80 -59 335 -161 l281 -112 76 4 c135 6 284 94 337
199 13 25 45 120 71 210 54 189 70 225 125 279 33 32 241 150 264 150 4 0 5
-116 3 -257 -4 -252 -4 -260 -32 -338 -47 -136 -130 -249 -239 -323 -23 -16
-184 -100 -357 -187 -173 -86 -340 -174 -370 -195 -84 -57 -164 -149 -210
-243 -57 -115 -71 -195 -68 -380 l3 -152 1598 -3 1597 -2 0 1046 c0 1148 0
1141 -61 1373 -69 263 -188 497 -360 711 -325 404 -796 658 -1318 710 -61 6
-426 10 -890 10 -742 0 -788 -1 -820 -18z m532 -966 c43 -17 93 -76 108 -125
36 -120 -60 -250 -187 -251 -89 0 -192 86 -195 165 -4 107 26 166 106 208 37
20 125 22 168 3z"/>
<path d="M5125 3645 c37 -97 46 -148 46 -259 0 -154 -38 -277 -124 -406 -16
-25 -353 -369 -749 -766 l-719 -720 3 -315 3 -314 37 -78 c50 -105 130 -185
235 -235 l78 -37 1240 0 1240 0 57 23 c123 50 226 156 278 285 l25 62 3 1189
c1 777 -1 1209 -8 1245 -22 124 -114 253 -226 321 -114 69 -116 69 -816 69
l-627 1 24 -65z m175 -1337 c169 -103 144 -351 -44 -423 -53 -21 -135 -16
-184 9 -115 60 -163 208 -103 323 42 83 110 122 211 123 57 0 73 -4 120 -32z"/>
<path d="M7295 1141 c-87 -22 -167 -87 -212 -174 -24 -45 -28 -64 -28 -137 0
-73 4 -93 28 -142 30 -62 83 -115 149 -150 l43 -23 1680 -3 c1922 -3 1737 -12
1841 92 77 78 98 134 92 245 -7 122 -69 215 -176 268 l-57 28 -1665 2 c-916 0
-1678 -2 -1695 -6z"/>
</g>
</svg>
